<svg width="264px" height="50px" xmlns="http://www.w3.org/2000/svg" xmlns:xlink="http://www.w3.org/1999/xlink">
<g style="">  <path d="M5.000000,28.975086 L10.770948,28.975086 C11.786212,28.975086,12.712405,29.077389,13.549552,29.281997 C14.386700,29.486606,15.099156,29.802411,15.686941,30.229420 C16.274725,30.656430,16.728916,31.199080,17.049525,31.857387 C17.370135,32.515693,17.530438,33.307428,17.530438,34.232616 C17.530438,35.175596,17.356777,35.985123,17.009449,36.661221 C16.662122,37.337320,16.181215,37.888866,15.566712,38.315876 C14.952210,38.742885,14.221943,39.058690,13.375890,39.263299 C12.529836,39.467907,11.617002,39.570210,10.637361,39.570210 L7.645018,39.570210 L7.645018,47.870169 L5.000000,47.870169 ZM7.645018,37.328421 L10.450340,37.328421 C11.091559,37.328421,11.683788,37.270597,12.227044,37.154949 C12.770299,37.039300,13.237848,36.861382,13.629704,36.621189 C14.021561,36.380996,14.324355,36.065192,14.538094,35.673766 C14.751834,35.282341,14.858703,34.801962,14.858703,34.232616 C14.858703,33.663270,14.747381,33.187339,14.524736,32.804810 C14.302090,32.422280,13.999296,32.110924,13.616346,31.870731 C13.233395,31.630538,12.774752,31.461516,12.240402,31.363659 C11.706053,31.265803,11.127182,31.216875,10.503774,31.216875 L7.645018,31.216875 ZM26.240294,28.975086 L28.885312,28.975086 L28.885312,36.874725 L38.450124,36.874725 L38.450124,28.975086 L41.121859,28.975086 L41.121859,47.870169 L38.450124,47.870169 L38.450124,39.223267 L28.885312,39.223267 L28.885312,47.870169 L26.240294,47.870169 ZM70.136903,38.395939 C70.136903,39.854889,69.883090,41.193722,69.375458,42.412479 C68.867826,43.631236,68.168729,44.680952,67.278146,45.561660 C66.387563,46.442367,65.327785,47.127352,64.098781,47.616633 C62.869777,48.105915,61.533923,48.350553,60.091178,48.350553 C58.648434,48.350553,57.317033,48.105915,56.096934,47.616633 C54.876836,47.127352,53.821511,46.442367,52.930928,45.561660 C52.040345,44.680952,51.345701,43.631236,50.846975,42.412479 C50.348249,41.193722,50.098889,39.854889,50.098889,38.395939 C50.098889,36.919198,50.348249,35.571469,50.846975,34.352712 C51.345701,33.133955,52.040345,32.093135,52.930928,31.230219 C53.821511,30.367304,54.876836,29.695663,56.096934,29.215277 C57.317033,28.734892,58.648434,28.494702,60.091178,28.494702 C61.533923,28.494702,62.869777,28.734892,64.098781,29.215277 C65.327785,29.695663,66.387563,30.367304,67.278146,31.230219 C68.168729,32.093135,68.867826,33.133955,69.375458,34.352712 C69.883090,35.571469,70.136903,36.919198,70.136903,38.395939 ZM67.278146,38.395939 C67.278146,37.363999,67.108938,36.389898,66.770516,35.473607 C66.432095,34.557315,65.951187,33.752236,65.327779,33.058345 C64.704371,32.364455,63.951840,31.817357,63.070163,31.417035 C62.188486,31.016714,61.195501,30.816556,60.091178,30.816556 C59.004667,30.816556,58.020588,31.016714,57.138911,31.417035 C56.257234,31.817357,55.509156,32.364455,54.894654,33.058345 C54.280151,33.752236,53.803697,34.557315,53.465275,35.473607 C53.126854,36.389898,52.957646,37.363999,52.957646,38.395939 C52.957646,39.445672,53.126854,40.433117,53.465275,41.358304 C53.803697,42.283492,54.284604,43.088571,54.908012,43.773566 C55.531420,44.458560,56.279499,44.996762,57.152270,45.388188 C58.025041,45.779613,59.004667,45.975323,60.091178,45.975323 C61.177690,45.975323,62.166222,45.779613,63.056804,45.388188 C63.947387,44.996762,64.704371,44.458560,65.327779,43.773566 C65.951187,43.088571,66.432095,42.283492,66.770516,41.358304 C67.108938,40.433117,67.278146,39.445672,67.278146,38.395939 ZM84.911598,47.870169 L82.266580,47.870169 L82.266580,31.296939 L76.201741,31.296939 L76.201741,28.975086 L90.976437,28.975086 L90.976437,31.296939 L84.911598,31.296939 ZM117.106006,38.395939 C117.106006,39.854889,116.852194,41.193722,116.344562,42.412479 C115.836929,43.631236,115.137832,44.680952,114.247250,45.561660 C113.356667,46.442367,112.296889,47.127352,111.067885,47.616633 C109.838881,48.105915,108.503026,48.350553,107.060282,48.350553 C105.617538,48.350553,104.286137,48.105915,103.066038,47.616633 C101.845940,47.127352,100.790615,46.442367,99.900032,45.561660 C99.009449,44.680952,98.314805,43.631236,97.816079,42.412479 C97.317352,41.193722,97.067993,39.854889,97.067993,38.395939 C97.067993,36.919198,97.317352,35.571469,97.816079,34.352712 C98.314805,33.133955,99.009449,32.093135,99.900032,31.230219 C100.790615,30.367304,101.845940,29.695663,103.066038,29.215277 C104.286137,28.734892,105.617538,28.494702,107.060282,28.494702 C108.503026,28.494702,109.838881,28.734892,111.067885,29.215277 C112.296889,29.695663,113.356667,30.367304,114.247250,31.230219 C115.137832,32.093135,115.836929,33.133955,116.344562,34.352712 C116.852194,35.571469,117.106006,36.919198,117.106006,38.395939 ZM114.247250,38.395939 C114.247250,37.363999,114.078041,36.389898,113.739620,35.473607 C113.401198,34.557315,112.920291,33.752236,112.296883,33.058345 C111.673475,32.364455,110.920944,31.817357,110.039267,31.417035 C109.157590,31.016714,108.164605,30.816556,107.060282,30.816556 C105.973771,30.816556,104.989692,31.016714,104.108015,31.417035 C103.226338,31.817357,102.478259,32.364455,101.863757,33.058345 C101.249255,33.752236,100.772800,34.557315,100.434379,35.473607 C100.095958,36.389898,99.926749,37.363999,99.926749,38.395939 C99.926749,39.445672,100.095958,40.433117,100.434379,41.358304 C100.772800,42.283492,101.253708,43.088571,101.877116,43.773566 C102.500524,44.458560,103.248602,44.996762,104.121373,45.388188 C104.994145,45.779613,105.973771,45.975323,107.060282,45.975323 C108.146793,45.975323,109.135325,45.779613,110.025908,45.388188 C110.916491,44.996762,111.673475,44.458560,112.296883,43.773566 C112.920291,43.088571,113.401198,42.283492,113.739620,41.358304 C114.078041,40.433117,114.247250,39.445672,114.247250,38.395939 ZM140.323385,32.871530 C139.753412,32.248807,139.027597,31.750637,138.145920,31.377003 C137.264243,31.003370,136.280164,30.816556,135.193653,30.816556 C134.089330,30.816556,133.091893,31.016714,132.201310,31.417035 C131.310727,31.817357,130.553743,32.364455,129.930335,33.058345 C129.306927,33.752236,128.826019,34.557315,128.487598,35.473607 C128.149176,36.389898,127.979968,37.363999,127.979968,38.395939 C127.979968,39.445672,128.149176,40.433117,128.487598,41.358304 C128.826019,42.283492,129.306927,43.088571,129.930335,43.773566 C130.553743,44.458560,131.319633,44.996762,132.228027,45.388188 C133.136422,45.779613,134.151671,45.975323,135.273805,45.975323 C136.164388,45.975323,136.983712,45.895260,137.731801,45.735132 C138.479891,45.575003,139.130007,45.343709,139.682168,45.041244 L139.682168,39.783714 L135.487544,39.783714 L135.487544,37.541924 L142.300469,37.541924 L142.300469,46.695898 C141.303016,47.229661,140.216521,47.638872,139.040952,47.923545 C137.865382,48.208218,136.582962,48.350553,135.193653,48.350553 C133.715286,48.350553,132.357167,48.105915,131.119257,47.616633 C129.881347,47.127352,128.817116,46.442367,127.926534,45.561660 C127.035951,44.680952,126.341306,43.631236,125.842580,42.412479 C125.343854,41.193722,125.094494,39.854889,125.094494,38.395939 C125.094494,36.919198,125.348307,35.571469,125.855939,34.352712 C126.363571,33.133955,127.067121,32.093135,127.966610,31.230219 C128.866098,30.367304,129.930329,29.695663,131.159333,29.215277 C132.388337,28.734892,133.724192,28.494702,135.166936,28.494702 C136.680927,28.494702,138.030139,28.717100,139.214614,29.161902 C140.399090,29.606703,141.383169,30.202729,142.166882,30.949996 ZM154.830906,47.870169 L152.185889,47.870169 L152.185889,28.975086 L158.250727,28.975086 C159.159122,28.975086,160.022974,29.068493,160.842310,29.255309 C161.661647,29.442126,162.378555,29.740139,162.993057,30.149356 C163.607559,30.558574,164.092920,31.096776,164.449153,31.763979 C164.805386,32.431181,164.983500,33.245156,164.983500,34.205928 C164.983500,35.593709,164.556026,36.714593,163.701067,37.568612 C162.846107,38.422632,161.741801,38.965282,160.388115,39.196579 L165.678151,47.870169 L162.472069,47.870169 L157.662946,39.463458 L154.830906,39.463458 ZM154.830906,37.248357 L157.876684,37.248357 C158.500092,37.248357,159.078962,37.194981,159.613312,37.088229 C160.147662,36.981477,160.615211,36.808006,161.015973,36.567813 C161.416735,36.327621,161.732888,36.016264,161.964439,35.633735 C162.195991,35.251205,162.311765,34.775274,162.311765,34.205928 C162.311765,33.636582,162.195991,33.160651,161.964439,32.778122 C161.732888,32.395592,161.425641,32.088684,161.042690,31.857387 C160.659740,31.626090,160.210002,31.461516,159.693464,31.363659 C159.176926,31.265803,158.633679,31.216875,158.063706,31.216875 L154.830906,31.216875 ZM174.708616,47.870169 L171.769707,47.870169 L179.971934,28.975086 L182.376496,28.975086 L190.498570,47.870169 L187.506227,47.870169 L185.582578,43.226462 L176.605548,43.226462 ZM177.540655,40.904609 L184.620753,40.904609 L181.094063,32.044202 ZM198.273320,28.975086 L204.044267,28.975086 C205.059532,28.975086,205.985724,29.077389,206.822872,29.281997 C207.660020,29.486606,208.372475,29.802411,208.960260,30.229420 C209.548045,30.656430,210.002235,31.199080,210.322845,31.857387 C210.643455,32.515693,210.803757,33.307428,210.803757,34.232616 C210.803757,35.175596,210.630096,35.985123,210.282769,36.661221 C209.935442,37.337320,209.454534,37.888866,208.840032,38.315876 C208.225530,38.742885,207.495263,39.058690,206.649209,39.263299 C205.803156,39.467907,204.890322,39.570210,203.910681,39.570210 L200.918337,39.570210 L200.918337,47.870169 L198.273320,47.870169 ZM200.918337,37.328421 L203.723659,37.328421 C204.364879,37.328421,204.957108,37.270597,205.500363,37.154949 C206.043619,37.039300,206.511168,36.861382,206.903024,36.621189 C207.294881,36.380996,207.597674,36.065192,207.811414,35.673766 C208.025154,35.282341,208.132022,34.801962,208.132022,34.232616 C208.132022,33.663270,208.020701,33.187339,207.798055,32.804810 C207.575410,32.422280,207.272616,32.110924,206.889665,31.870731 C206.506715,31.630538,206.048071,31.461516,205.513722,31.363659 C204.979372,31.265803,204.400502,31.216875,203.777094,31.216875 L200.918337,31.216875 ZM219.513614,28.975086 L222.158632,28.975086 L222.158632,36.874725 L231.723443,36.874725 L231.723443,28.975086 L234.395179,28.975086 L234.395179,47.870169 L231.723443,47.870169 L231.723443,39.223267 L222.158632,39.223267 L222.158632,47.870169 L219.513614,47.870169 ZM251.708022,47.870169 L249.036287,47.870169 L249.036287,39.703650 L241.956189,28.975086 L245.215706,28.975086 L250.452307,37.515236 L255.715625,28.975086 L258.788120,28.975086 L251.708022,39.703650 Z" style="fill: rgba(0, 0, 0, 1.000000); " fill="#000000" stroke="none" />
  <path d="M20.422837,15.480103 C20.422837,16.550189,20.210435,17.449601,19.785623,18.178366 C19.360812,18.907131,18.797483,19.492902,18.095621,19.935696 C17.393758,20.378490,16.594940,20.696744,15.699142,20.890466 C14.803344,21.084189,13.884472,21.181048,12.942499,21.181048 L5.129700,21.181048 L5.129700,1.587508 L12.942499,1.587508 C13.699771,1.587508,14.475502,1.665918,15.269715,1.822741 C16.063928,1.979564,16.784250,2.247082,17.430702,2.625302 C18.077154,3.003522,18.603543,3.515495,19.009885,4.161236 C19.416226,4.806977,19.619394,5.627979,19.619394,6.624266 C19.619394,7.712801,19.323877,8.612213,18.732835,9.322529 C18.141793,10.032844,17.366062,10.544817,16.405618,10.858463 L16.405618,10.913812 C16.959720,11.006061,17.481492,11.176718,17.970949,11.425790 C18.460405,11.674862,18.885210,11.993115,19.245377,12.380560 C19.605543,12.768005,19.891825,13.220017,20.104230,13.736610 C20.316636,14.253203,20.422837,14.834362,20.422837,15.480103 ZM15.048076,7.260779 C15.048076,6.596588,14.794116,6.112289,14.286189,5.807868 C13.778262,5.503447,13.025619,5.351239,12.028235,5.351239 L9.701019,5.351239 L9.701019,9.391715 L12.249875,9.391715 C13.136438,9.391715,13.824437,9.211832,14.313894,8.852062 C14.803351,8.492292,15.048076,7.961870,15.048076,7.260779 ZM15.685290,15.037311 C15.685290,14.225522,15.380538,13.662813,14.771026,13.349167 C14.161514,13.035521,13.348843,12.878701,12.332990,12.878701 L9.701019,12.878701 L9.701019,17.361968 L12.360695,17.361968 C12.730096,17.361968,13.113344,17.329682,13.510450,17.265108 C13.907557,17.200534,14.267718,17.085224,14.590944,16.919177 C14.914170,16.753129,15.177364,16.517898,15.380535,16.213477 C15.583706,15.909056,15.685290,15.517005,15.685290,15.037311 ZM29.094489,21.181048 L29.094489,1.587508 L33.859742,1.587508 L33.859742,17.057549 L41.450901,17.057549 L41.450901,21.181048 ZM62.506669,21.181048 L60.982896,17.334294 L53.391738,17.334294 L51.951080,21.181048 L46.797958,21.181048 L55.026330,1.587508 L59.625353,1.587508 L67.770611,21.181048 ZM57.242727,6.817987 L54.749281,13.542889 L59.680763,13.542889 ZM86.942442,21.181048 L79.656038,12.159164 L79.600628,12.159164 L79.600628,21.181048 L74.946195,21.181048 L74.946195,1.587508 L79.600628,1.587508 L79.600628,9.557762 L79.683743,9.557762 L86.693097,1.587508 L92.621958,1.587508 L84.171946,10.609392 L93.120648,21.181048 ZM100.185412,21.181048 L100.185412,1.587508 L113.372972,1.587508 L113.372972,5.600309 L104.756730,5.600309 L104.756730,9.281017 L112.901988,9.281017 L112.901988,13.072422 L104.756730,13.072422 L104.756730,17.140573 L113.871661,17.140573 L113.871661,21.181048 ZM150.303681,15.480103 C150.303681,16.550189,150.091279,17.449601,149.666467,18.178366 C149.241656,18.907131,148.678327,19.492902,147.976465,19.935696 C147.274602,20.378490,146.475784,20.696744,145.579986,20.890466 C144.684188,21.084189,143.765316,21.181048,142.823343,21.181048 L135.010544,21.181048 L135.010544,1.587508 L142.823343,1.587508 C143.580615,1.587508,144.356346,1.665918,145.150559,1.822741 C145.944772,1.979564,146.665094,2.247082,147.311546,2.625302 C147.957998,3.003522,148.484387,3.515495,148.890728,4.161236 C149.297070,4.806977,149.500238,5.627979,149.500238,6.624266 C149.500238,7.712801,149.204721,8.612213,148.613679,9.322529 C148.022637,10.032844,147.246906,10.544817,146.286462,10.858463 L146.286462,10.913812 C146.840564,11.006061,147.362336,11.176718,147.851793,11.425790 C148.341249,11.674862,148.766054,11.993115,149.126221,12.380560 C149.486387,12.768005,149.772669,13.220017,149.985074,13.736610 C150.197480,14.253203,150.303681,14.834362,150.303681,15.480103 ZM144.928919,7.260779 C144.928919,6.596588,144.674960,6.112289,144.167033,5.807868 C143.659106,5.503447,142.906462,5.351239,141.909079,5.351239 L139.581862,5.351239 L139.581862,9.391715 L142.130719,9.391715 C143.017282,9.391715,143.705281,9.211832,144.194738,8.852062 C144.684195,8.492292,144.928919,7.961870,144.928919,7.260779 ZM145.566133,15.037311 C145.566133,14.225522,145.261382,13.662813,144.651870,13.349167 C144.042358,13.035521,143.229687,12.878701,142.213834,12.878701 L139.581862,12.878701 L139.581862,17.361968 L142.241538,17.361968 C142.610940,17.361968,142.994188,17.329682,143.391294,17.265108 C143.788401,17.200534,144.148561,17.085224,144.471788,16.919177 C144.795014,16.753129,145.058208,16.517898,145.261379,16.213477 C145.464550,15.909056,145.566133,15.517005,145.566133,15.037311 ZM172.273713,21.181048 L170.749940,17.334294 L163.158782,17.334294 L161.718124,21.181048 L156.565002,21.181048 L164.793374,1.587508 L169.392397,1.587508 L177.537655,21.181048 ZM167.009771,6.817987 L164.516325,13.542889 L169.447807,13.542889 ZM184.713239,21.181048 L184.713239,1.587508 L189.478492,1.587508 L189.478492,21.181048 ZM199.064408,21.181048 L199.064408,1.587508 L203.829660,1.587508 L203.829660,17.057549 L211.420819,17.057549 L211.420819,21.181048 ZM219.178207,21.181048 L219.178207,1.587508 L232.365767,1.587508 L232.365767,5.600309 L223.749525,5.600309 L223.749525,9.281017 L231.894783,9.281017 L231.894783,13.072422 L223.749525,13.072422 L223.749525,17.140573 L232.864457,17.140573 L232.864457,21.181048 ZM251.066614,12.878701 L251.066614,21.181048 L246.329066,21.181048 L246.329066,12.878701 L238.959547,1.587508 L244.694474,1.587508 L248.877922,8.838225 L253.061371,1.587508 L258.602363,1.587508 Z" style="fill: rgba(0, 0, 0, 1.000000); " fill="#000000" stroke="none" />
</g></svg>