<svg width="264px" height="50px" xmlns="http://www.w3.org/2000/svg" xmlns:xlink="http://www.w3.org/1999/xlink">
<g style="">  <path d="M0.662018,29.128755 L6.648930,29.128755 C7.702188,29.128755,8.663041,29.234886,9.531517,29.447152 C10.399993,29.659418,11.139111,29.987041,11.748892,30.430030 C12.358673,30.873020,12.829860,31.435977,13.162468,32.118919 C13.495076,32.801861,13.661377,33.623225,13.661377,34.583036 C13.661377,35.561304,13.481217,36.401126,13.120892,37.102526 C12.760567,37.803926,12.261663,38.376112,11.624164,38.819102 C10.986666,39.262091,10.229070,39.589714,9.351355,39.801980 C8.473640,40.014245,7.526646,40.120377,6.510344,40.120377 L3.406019,40.120377 L3.406019,48.730942 L0.662018,48.730942 ZM3.406019,37.794694 L6.316324,37.794694 C6.981539,37.794694,7.595931,37.734706,8.159516,37.614730 C8.723102,37.494754,9.208148,37.310177,9.614668,37.060996 C10.021189,36.811814,10.335314,36.484192,10.557053,36.078118 C10.778791,35.672044,10.889659,35.173689,10.889659,34.583036 C10.889659,33.992383,10.774172,33.498642,10.543194,33.101797 C10.312216,32.704952,9.998091,32.381944,9.600810,32.132763 C9.203528,31.883581,8.727721,31.708234,8.173375,31.606715 C7.619028,31.505197,7.018495,31.454438,6.371758,31.454438 L3.406019,31.454438 ZM22.697179,29.128755 L25.441181,29.128755 L25.441181,37.324020 L35.363932,37.324020 L35.363932,29.128755 L38.135651,29.128755 L38.135651,48.730942 L35.363932,48.730942 L35.363932,39.760450 L25.441181,39.760450 L25.441181,48.730942 L22.697179,48.730942 ZM68.236513,38.902162 C68.236513,40.415709,67.973202,41.804645,67.446573,43.069011 C66.919944,44.333376,66.194685,45.422376,65.270774,46.336042 C64.346863,47.249708,63.247426,47.960326,61.972429,48.467918 C60.697432,48.975510,59.311587,49.229302,57.814851,49.229302 C56.318116,49.229302,54.936890,48.975510,53.671132,48.467918 C52.405375,47.960326,51.310557,47.249708,50.386646,46.336042 C49.462735,45.422376,48.742096,44.333376,48.224706,43.069011 C47.707316,41.804645,47.448625,40.415709,47.448625,38.902162 C47.448625,37.370156,47.707316,35.971992,48.224706,34.707626 C48.742096,33.443260,49.462735,32.363490,50.386646,31.468282 C51.310557,30.573074,52.405375,29.876299,53.671132,29.377936 C54.936890,28.879572,56.318116,28.630394,57.814851,28.630394 C59.311587,28.630394,60.697432,28.879572,61.972429,29.377936 C63.247426,29.876299,64.346863,30.573074,65.270774,31.468282 C66.194685,32.363490,66.919944,33.443260,67.446573,34.707626 C67.973202,35.971992,68.236513,37.370156,68.236513,38.902162 ZM65.270774,38.902162 C65.270774,37.831604,65.095233,36.821049,64.744147,35.870468 C64.393061,34.919886,63.894157,34.084679,63.247419,33.364821 C62.600682,32.644963,61.819989,32.077391,60.905317,31.662089 C59.990646,31.246786,58.960501,31.039138,57.814851,31.039138 C56.687680,31.039138,55.666774,31.246786,54.752103,31.662089 C53.837431,32.077391,53.061358,32.644963,52.423859,33.364821 C51.786361,34.084679,51.292076,34.919886,50.940990,35.870468 C50.589904,36.821049,50.414363,37.831604,50.414363,38.902162 C50.414363,39.991178,50.589904,41.015575,50.940990,41.975386 C51.292076,42.935196,51.790980,43.770404,52.437718,44.481033 C53.084455,45.191662,53.860529,45.750004,54.765961,46.156078 C55.671394,46.562152,56.687680,46.765186,57.814851,46.765186 C58.942023,46.765186,59.967548,46.562152,60.891459,46.156078 C61.815370,45.750004,62.600682,45.191662,63.247419,44.481033 C63.894157,43.770404,64.393061,42.935196,64.744147,41.975386 C65.095233,41.015575,65.270774,39.991178,65.270774,38.902162 ZM83.564115,48.730942 L80.820114,48.730942 L80.820114,31.537498 L74.528313,31.537498 L74.528313,29.128755 L89.855916,29.128755 L89.855916,31.537498 L83.564115,31.537498 ZM116.963322,38.902162 C116.963322,40.415709,116.700011,41.804645,116.173382,43.069011 C115.646753,44.333376,114.921494,45.422376,113.997583,46.336042 C113.073673,47.249708,111.974235,47.960326,110.699238,48.467918 C109.424242,48.975510,108.038396,49.229302,106.541661,49.229302 C105.044925,49.229302,103.663700,48.975510,102.397942,48.467918 C101.132184,47.960326,100.037366,47.249708,99.113456,46.336042 C98.189545,45.422376,97.468905,44.333376,96.951515,43.069011 C96.434125,41.804645,96.175434,40.415709,96.175434,38.902162 C96.175434,37.370156,96.434125,35.971992,96.951515,34.707626 C97.468905,33.443260,98.189545,32.363490,99.113456,31.468282 C100.037366,30.573074,101.132184,29.876299,102.397942,29.377936 C103.663700,28.879572,105.044925,28.630394,106.541661,28.630394 C108.038396,28.630394,109.424242,28.879572,110.699238,29.377936 C111.974235,29.876299,113.073673,30.573074,113.997583,31.468282 C114.921494,32.363490,115.646753,33.443260,116.173382,34.707626 C116.700011,35.971992,116.963322,37.370156,116.963322,38.902162 ZM113.997583,38.902162 C113.997583,37.831604,113.822043,36.821049,113.470957,35.870468 C113.119871,34.919886,112.620966,34.084679,111.974229,33.364821 C111.327491,32.644963,110.546798,32.077391,109.632127,31.662089 C108.717455,31.246786,107.687310,31.039138,106.541661,31.039138 C105.414490,31.039138,104.393584,31.246786,103.478912,31.662089 C102.564240,32.077391,101.788167,32.644963,101.150669,33.364821 C100.513170,34.084679,100.018885,34.919886,99.667799,35.870468 C99.316713,36.821049,99.141173,37.831604,99.141173,38.902162 C99.141173,39.991178,99.316713,41.015575,99.667799,41.975386 C100.018885,42.935196,100.517790,43.770404,101.164527,44.481033 C101.811265,45.191662,102.587338,45.750004,103.492771,46.156078 C104.398203,46.562152,105.414490,46.765186,106.541661,46.765186 C107.668832,46.765186,108.694357,46.562152,109.618268,46.156078 C110.542179,45.750004,111.327491,45.191662,111.974229,44.481033 C112.620966,43.770404,113.119871,42.935196,113.470957,41.975386 C113.822043,41.015575,113.997583,39.991178,113.997583,38.902162 ZM141.049555,33.171014 C140.458252,32.524988,139.705276,32.008174,138.790604,31.620559 C137.875933,31.232943,136.855027,31.039138,135.727856,31.039138 C134.582206,31.039138,133.547442,31.246786,132.623531,31.662089 C131.699620,32.077391,130.914308,32.644963,130.267570,33.364821 C129.620833,34.084679,129.121928,34.919886,128.770842,35.870468 C128.419756,36.821049,128.244216,37.831604,128.244216,38.902162 C128.244216,39.991178,128.419756,41.015575,128.770842,41.975386 C129.121928,42.935196,129.620833,43.770404,130.267570,44.481033 C130.914308,45.191662,131.708859,45.750004,132.651248,46.156078 C133.593637,46.562152,134.646880,46.765186,135.811007,46.765186 C136.734918,46.765186,137.584903,46.682126,138.360988,46.516005 C139.137073,46.349884,139.811518,46.109935,140.384342,45.796151 L140.384342,40.341870 L136.032745,40.341870 L136.032745,38.016187 L143.100626,38.016187 L143.100626,47.512727 C142.065846,48.066464,140.938692,48.490989,139.719130,48.786315 C138.499568,49.081641,137.169156,49.229302,135.727856,49.229302 C134.194164,49.229302,132.785221,48.975510,131.500985,48.467918 C130.216749,47.960326,129.112692,47.249708,128.188782,46.336042 C127.264871,45.422376,126.544231,44.333376,126.026841,43.069011 C125.509451,41.804645,125.250760,40.415709,125.250760,38.902162 C125.250760,37.370156,125.514071,35.971992,126.040700,34.707626 C126.567329,33.443260,127.297207,32.363490,128.230357,31.468282 C129.163507,30.573074,130.267564,29.876299,131.542561,29.377936 C132.817558,28.879572,134.203403,28.630394,135.700138,28.630394 C137.270787,28.630394,138.670490,28.861115,139.899292,29.322562 C141.128093,29.784009,142.148999,30.402340,142.962041,31.177571 ZM156.099986,48.730942 L153.355985,48.730942 L153.355985,29.128755 L159.647785,29.128755 C160.590174,29.128755,161.486354,29.225658,162.336352,29.419466 C163.186350,29.613273,163.930087,29.922439,164.567585,30.346970 C165.205084,30.771502,165.708608,31.329845,166.078172,32.022016 C166.447736,32.714187,166.632516,33.558623,166.632516,34.555349 C166.632516,35.995065,166.189045,37.157895,165.302091,38.043874 C164.415137,38.929853,163.269504,39.492810,161.865160,39.732763 L167.353162,48.730942 L164.027100,48.730942 L159.038007,40.009630 L156.099986,40.009630 ZM156.099986,37.711633 L159.259745,37.711633 C159.906482,37.711633,160.507015,37.656261,161.061362,37.545513 C161.615708,37.434766,162.100754,37.254804,162.516514,37.005622 C162.932274,36.756441,163.260257,36.433433,163.500474,36.036588 C163.740691,35.639743,163.860797,35.146002,163.860797,34.555349 C163.860797,33.964697,163.740691,33.470955,163.500474,33.074111 C163.260257,32.677266,162.941513,32.358872,162.544231,32.118919 C162.146949,31.878967,161.680381,31.708234,161.144513,31.606715 C160.608645,31.505197,160.045068,31.454438,159.453765,31.454438 L156.099986,31.454438 ZM176.721571,48.730942 L173.672680,48.730942 L182.181856,29.128755 L184.676402,29.128755 L193.102426,48.730942 L189.998102,48.730942 L188.002465,43.913455 L178.689491,43.913455 ZM179.659592,41.504712 L187.004646,41.504712 L183.345978,32.312726 ZM201.168127,29.128755 L207.155039,29.128755 C208.208297,29.128755,209.169150,29.234886,210.037626,29.447152 C210.906102,29.659418,211.645219,29.987041,212.255001,30.430030 C212.864782,30.873020,213.335969,31.435977,213.668577,32.118919 C214.001185,32.801861,214.167486,33.623225,214.167486,34.583036 C214.167486,35.561304,213.987326,36.401126,213.627001,37.102526 C213.266676,37.803926,212.767772,38.376112,212.130273,38.819102 C211.492775,39.262091,210.735179,39.589714,209.857464,39.801980 C208.979749,40.014245,208.032755,40.120377,207.016453,40.120377 L203.912128,40.120377 L203.912128,48.730942 L201.168127,48.730942 ZM203.912128,37.794694 L206.822432,37.794694 C207.487648,37.794694,208.102040,37.734706,208.665625,37.614730 C209.229211,37.494754,209.714257,37.310177,210.120777,37.060996 C210.527298,36.811814,210.841423,36.484192,211.063162,36.078118 C211.284900,35.672044,211.395768,35.173689,211.395768,34.583036 C211.395768,33.992383,211.280281,33.498642,211.049303,33.101797 C210.818325,32.704952,210.504200,32.381944,210.106919,32.132763 C209.709637,31.883581,209.233830,31.708234,208.679484,31.606715 C208.125137,31.505197,207.524604,31.454438,206.877867,31.454438 L203.912128,31.454438 ZM223.203288,29.128755 L225.947289,29.128755 L225.947289,37.324020 L235.870041,37.324020 L235.870041,29.128755 L238.641760,29.128755 L238.641760,48.730942 L235.870041,48.730942 L235.870041,39.760450 L225.947289,39.760450 L225.947289,48.730942 L223.203288,48.730942 ZM256.602495,48.730942 L253.830776,48.730942 L253.830776,40.258810 L246.485723,29.128755 L249.867219,29.128755 L255.299787,37.988500 L260.760072,29.128755 L263.947549,29.128755 L256.602495,40.258810 Z" style="fill: rgba(251, 252, 255, 1.000000); " fill="#fbfcfe" stroke="none" />
  <path d="M16.699927,15.105431 C16.699927,16.215562,16.479576,17.148633,16.038867,17.904670 C15.598158,18.660708,15.013748,19.268400,14.285620,19.727764 C13.557492,20.187129,12.728780,20.517292,11.799459,20.718264 C10.870137,20.919236,9.916879,21.019721,8.939654,21.019721 L0.834481,21.019721 L0.834481,0.692939 L8.939654,0.692939 C9.725266,0.692939,10.530027,0.774284,11.353961,0.936976 C12.177896,1.099667,12.925174,1.377196,13.595818,1.769570 C14.266462,2.161944,14.812550,2.693076,15.234098,3.362983 C15.655645,4.032889,15.866416,4.884615,15.866416,5.918185 C15.866416,7.047457,15.559840,7.980527,14.946680,8.717424 C14.333520,9.454322,13.528759,9.985454,12.532373,10.310837 L12.532373,10.368258 C13.107211,10.463958,13.648509,10.641003,14.156282,10.899395 C14.664055,11.157788,15.104758,11.487951,15.478402,11.889895 C15.852047,12.291839,16.149042,12.760767,16.369397,13.296692 C16.589751,13.832617,16.699927,14.435524,16.699927,15.105431 ZM11.124027,6.578519 C11.124027,5.889472,10.860564,5.387049,10.333629,5.071236 C9.806695,4.755423,9.025885,4.597519,7.991177,4.597519 L5.576870,4.597519 L5.576870,8.789200 L8.221111,8.789200 C9.140851,8.789200,9.854598,8.602586,10.362371,8.229352 C10.870144,7.856118,11.124027,7.305846,11.124027,6.578519 ZM11.785088,14.646069 C11.785088,13.803900,11.468932,13.220133,10.836610,12.894750 C10.204288,12.569367,9.361205,12.406678,8.307336,12.406678 L5.576870,12.406678 L5.576870,17.057721 L8.336078,17.057721 C8.719303,17.057721,9.116893,17.024226,9.528860,16.957235 C9.940827,16.890245,10.314466,16.770620,10.649789,16.598359 C10.985111,16.426097,11.258155,16.182063,11.468928,15.866250 C11.679702,15.550437,11.785088,15.143714,11.785088,14.646069 ZM25.696094,21.019721 L25.696094,0.692939 L30.639675,0.692939 L30.639675,16.741909 L38.514915,16.741909 L38.514915,21.019721 ZM60.358645,21.019721 L58.777848,17.029011 L50.902609,17.029011 L49.408038,21.019721 L44.062072,21.019721 L52.598372,0.692939 L57.369503,0.692939 L65.819577,21.019721 ZM54.897712,6.119156 L52.310955,13.095721 L57.426986,13.095721 ZM85.708868,21.019721 L78.149788,11.660214 L78.092304,11.660214 L78.092304,21.019721 L73.263690,21.019721 L73.263690,0.692939 L78.092304,0.692939 L78.092304,8.961461 L78.178529,8.961461 L85.450192,0.692939 L91.600926,0.692939 L82.834693,10.052446 L92.118278,21.019721 ZM99.447424,21.019721 L99.447424,0.692939 L113.128497,0.692939 L113.128497,4.855910 L104.189813,4.855910 L104.189813,8.674359 L112.639887,8.674359 L112.639887,12.607649 L104.189813,12.607649 L104.189813,16.828040 L113.645848,16.828040 L113.645848,21.019721 ZM151.441249,15.105431 C151.441249,16.215562,151.220898,17.148633,150.780189,17.904670 C150.339480,18.660708,149.755070,19.268400,149.026942,19.727764 C148.298814,20.187129,147.470102,20.517292,146.540781,20.718264 C145.611460,20.919236,144.658201,21.019721,143.680977,21.019721 L135.575803,21.019721 L135.575803,0.692939 L143.680977,0.692939 C144.466588,0.692939,145.271349,0.774284,146.095284,0.936976 C146.919218,1.099667,147.666496,1.377196,148.337140,1.769570 C149.007784,2.161944,149.553872,2.693076,149.975420,3.362983 C150.396968,4.032889,150.607738,4.884615,150.607738,5.918185 C150.607738,7.047457,150.301163,7.980527,149.688002,8.717424 C149.074842,9.454322,148.270081,9.985454,147.273695,10.310837 L147.273695,10.368258 C147.848533,10.463958,148.389831,10.641003,148.897604,10.899395 C149.405378,11.157788,149.846080,11.487951,150.219725,11.889895 C150.593369,12.291839,150.890364,12.760767,151.110719,13.296692 C151.331073,13.832617,151.441249,14.435524,151.441249,15.105431 ZM145.865350,6.578519 C145.865350,5.889472,145.601886,5.387049,145.074952,5.071236 C144.548017,4.755423,143.767207,4.597519,142.732499,4.597519 L140.318192,4.597519 L140.318192,8.789200 L142.962433,8.789200 C143.882173,8.789200,144.595920,8.602586,145.103693,8.229352 C145.611467,7.856118,145.865350,7.305846,145.865350,6.578519 ZM146.526410,14.646069 C146.526410,13.803900,146.210254,13.220133,145.577932,12.894750 C144.945610,12.569367,144.102528,12.406678,143.048658,12.406678 L140.318192,12.406678 L140.318192,17.057721 L143.077400,17.057721 C143.460625,17.057721,143.858215,17.024226,144.270183,16.957235 C144.682150,16.890245,145.055789,16.770620,145.391111,16.598359 C145.726433,16.426097,145.999477,16.182063,146.210251,15.866250 C146.421025,15.550437,146.526410,15.143714,146.526410,14.646069 ZM174.233457,21.019721 L172.652660,17.029011 L164.777421,17.029011 L163.282850,21.019721 L157.936884,21.019721 L166.473184,0.692939 L171.244315,0.692939 L179.694389,21.019721 ZM168.772524,6.119156 L166.185767,13.095721 L171.301798,13.095721 ZM187.138502,21.019721 L187.138502,0.692939 L192.082083,0.692939 L192.082083,21.019721 ZM202.026728,21.019721 L202.026728,0.692939 L206.970309,0.692939 L206.970309,16.741909 L214.845549,16.741909 L214.845549,21.019721 ZM222.893239,21.019721 L222.893239,0.692939 L236.574311,0.692939 L236.574311,4.855910 L227.635627,4.855910 L227.635627,8.674359 L236.085702,8.674359 L236.085702,12.607649 L227.635627,12.607649 L227.635627,16.828040 L237.091663,16.828040 L237.091663,21.019721 ZM255.974992,12.406678 L255.974992,21.019721 L251.060153,21.019721 L251.060153,12.406678 L243.414848,0.692939 L249.364390,0.692939 L253.704394,8.214997 L258.044398,0.692939 L263.792748,0.692939 Z" style="fill: rgba(251, 252, 255, 1.000000); " fill="#fbfcfe" stroke="none" />
</g></svg>